# xmcd
#
# Track frame offsets:
# 150
# 20717
# 40830
# 52167
# 70530
# 86725
# 97554
# 120320
# 136960
# 155462
# 174010
# 194102
# 210162
# 222235
# 237520
# 254795
#
# Disc length: 3590 seconds
#
#
# Revision: 0
# Processed by: cddbd v1.5.1PL2 Copyright (c) Steve Scherf et al.
# Submitted via: FreeRIP 2.942 
#
DISCID=db0e0410
DTITLE=Mandolino Napoletano - Mandolino Napoletano
DYEAR=1900
DGENRE=Bass
TTITLE0=O Sole Mio - Capurro e Di Capua
TTITLE1=Torna Surriento - G. B. de Curtis
TTITLE2=Napule E 'Na Canzone - Tagliaferri Murolo
TTITLE3=Munastero 'E Santa Chiara - Galdieri e Barberis
TTITLE4=Silenzio Cantore - Nardella Bovio
TTITLE5=Tarantella Luciana - Canio e Bovio
TTITLE6=Santa Lucia Luntana - E. A. Mario
TTITLE7=Vierno - De Gregorio e Acampora
TTITLE8='Na Sera' E Maggio - Pisano e Cioffi
TTITLE9=Malafemmena - De Curtis
TTITLE10=Dicitencello Vuie - Falvo Fusco
TTITLE11=Funniculli' Funniculla' - Dansa e Turco
TTITLE12='O Surdato 'Nnammurato - Califano e Cannio
TTITLE13=Napule Ca Se Ne Va - D. R.
TTITLE14=Sienzio Cantore - D. R.
TTITLE15=Simme 'E Napule Paisa' - Valenti
EXTD=
EXTT0=
EXTT1=
EXTT2=
EXTT3=
EXTT4=
EXTT5=
EXTT6=
EXTT7=
EXTT8=
EXTT9=
EXTT10=
EXTT11=
EXTT12=
EXTT13=
EXTT14=
EXTT15=
PLAYORDER=
